<!DOCTYPE svg PUBLIC "-//W3C//DTD SVG 1.1//EN" "http://www.w3.org/Graphics/SVG/1.1/DTD/svg11.dtd">
<!-- Uploaded to: SVG Repo, www.svgrepo.com, Transformed by: SVG Repo Mixer Tools -->
<svg version="1.1" id="Layer_1" xmlns="http://www.w3.org/2000/svg" xmlns:xlink="http://www.w3.org/1999/xlink" viewBox="0 0 501.333 501.333" xml:space="preserve" width="800px" height="800px" fill="#000000" transform="matrix(-1, 0, 0, 1, 0, 0)">
<g id="SVGRepo_bgCarrier" stroke-width="0"/>
<g id="SVGRepo_tracerCarrier" stroke-linecap="round" stroke-linejoin="round"/>
<g id="SVGRepo_iconCarrier"> <path style="fill:#E0E0DF;" d="M77.333,0v359.467l274.133,45.867c-2.133,7.467-4.267,16-4.267,24.533 c0,39.467,34.133,71.467,76.8,71.467s76.8-32,76.8-71.467V0H77.333z"/> <g> <rect x="145.6" y="73.6" style="fill:#60C3AB;" width="288" height="21.333"/> <rect x="145.6" y="169.6" style="fill:#60C3AB;" width="288" height="21.333"/> <rect x="145.6" y="265.6" style="fill:#60C3AB;" width="288" height="21.333"/> </g> <path style="fill:#637888;" d="M347.2,429.867c0-39.467,34.133-71.467,76.8-71.467H77.333c-42.667,0-76.8,32-76.8,71.467 s34.133,71.467,76.8,71.467H424C381.333,501.333,347.2,469.333,347.2,429.867z"/> </g>
</svg>